<?xml version="1.0" encoding="utf-8"?>
<!-- Generator: Adobe Illustrator 16.0.0, SVG Export Plug-In . SVG Version: 6.00 Build 0)  -->
<!DOCTYPE svg PUBLIC "-//W3C//DTD SVG 1.1//EN" "http://www.w3.org/Graphics/SVG/1.1/DTD/svg11.dtd">
<svg version="1.1" id="Layer_1" xmlns="http://www.w3.org/2000/svg" xmlns:xlink="http://www.w3.org/1999/xlink" x="0px" y="0px"
	 width="502px" height="122px" viewBox="0 0 502 122" enable-background="new 0 0 502 122" xml:space="preserve">
<path fill="#FFFFFF" d="M4.286,72.308h4.001v10.525h0.174c2.958-7.829,9.742-11.917,18.441-11.917c1.218,0,2.088,0.175,3.306,0.521
	v4.002c-0.957-0.349-2.088-0.521-4.611-0.521c-11.569,0-17.311,8.786-17.311,17.832v24.097H4.286V72.308z"/>
<path fill="#FFFFFF" d="M34.535,95.449c0.26,11.134,7.829,19.311,21.225,19.311c13.831,0,17.397-8.7,18.963-12.702h4.002
	c-3.74,11.224-11.569,16.182-23.4,16.182c-15.222,0-24.792-9.221-24.792-24.009c0-9.307,5.917-23.313,24.88-23.313
	c15.483,0,24.357,10.265,24.531,24.532H34.535z M75.42,91.967c-1.654-12.179-10.178-17.571-20.443-17.571
	c-11.483,0-18.702,6.958-20.442,17.571H75.42z"/>
<path fill="#FFFFFF" d="M87.446,86.052c1.478-11.221,7.219-15.136,20.703-15.136c12.96,0,20.441,3.045,20.441,13.048v24.966
	c0,3.307,0,5.307,2.958,5.307c1.305,0,2.609-0.261,3.914-0.696v3.479c-1.217,0.436-2.871,0.696-4.871,0.696
	c-5.481,0-5.481-3.827-5.481-9.744h-0.173c-4.958,9.136-15.397,10.267-21.225,10.267c-3.828,0-18.269,0-18.269-13.571
	c0-9.134,7.743-12.265,16.79-12.788l15.569-1.041c4.611-0.349,6.786-0.871,6.786-6.351c0-6.005-3.392-10.092-16.528-10.092
	c-11.744,0-15.397,3.651-16.614,11.656H87.446z M124.589,91.967h-0.173c-0.957,1.044-3.306,2.087-7.133,2.35l-15.048,1.042
	c-7.483,0.522-12.789,2.612-12.789,9.309c0,9.048,9.135,10.092,14.527,10.092c8.874,0,20.617-4.002,20.617-14.615V91.967z"/>
<path fill="#FFFFFF" d="M181.044,86.313c-0.522-5.653-8.176-11.917-18.875-11.917c-14.093,0-21.139,10.002-21.139,20.617
	c0,7.219,5.044,19.746,21.139,19.746c8.958,0,17.483-4.265,19.485-13.483h4.001c-2.349,11.656-12.266,16.963-23.486,16.963
	c-14.615,0-25.142-9.396-25.142-23.226c0-15.659,11.484-24.097,25.142-24.097c13.656,0,22.355,7.829,22.877,15.396H181.044z"/>
<path fill="#FFFFFF" d="M192.787,58.261h4.003v22.92h0.173c2.783-5.307,8.612-10.265,18.79-10.265
	c20.441,0,20.441,13.048,20.441,18.44v27.49h-4.001V89.532c0-9.046-3.392-15.136-16.527-15.136
	c-13.135,0-18.875,8.177-18.875,16.442v26.009h-4.003V58.261z"/>
<path fill="#FFFFFF" d="M244.106,72.304h35.81v5.739h-29.197v12.915h28.322v5.739h-28.322v14.41h29.82v5.739h-36.433V72.304z"/>
<path fill="#FFFFFF" d="M295.004,81.411h-0.125v35.437h-6.611V72.304h7.674l28.633,35.436h0.125V72.304h6.613v44.543h-7.672
	L295.004,81.411z"/>
<path fill="#FFFFFF" d="M363.791,92.83h20.461v24.018h-4.742l-1.121-6.363c-2.932,3.431-7.674,7.485-17.094,7.485
	c-17.842,0-23.52-12.851-23.52-22.646c0-17.219,11.791-24.144,23.332-24.144c9.172,0,19.59,2.871,22.396,15.161h-6.986
	c-2.061-6.178-6.678-9.422-15.098-9.422c-11.791,0-17.033,8.36-17.033,17.844c0,12.601,8.051,17.467,17.344,17.467
	c9.672,0,15.971-5.739,16.658-13.663h-14.598V92.83z"/>
<path fill="#FFFFFF" d="M392.463,72.304h6.613v44.543h-6.613V72.304z"/>
<path fill="#FFFFFF" d="M414.467,81.411h-0.125v35.437h-6.611V72.304h7.674l28.633,35.436h0.125V72.304h6.611v44.543h-7.672
	L414.467,81.411z"/>
<path fill="#FFFFFF" d="M458.859,72.304h35.811v5.739h-29.197v12.915h28.322v5.739h-28.322v14.41h29.82v5.739h-36.434V72.304z"/>
<path fill="#009BDB" d="M170.974,40.638c-4.517,0-8.19,3.674-8.19,8.19c0,4.521,3.674,8.2,8.19,8.2c4.522,0,8.2-3.68,8.2-8.2
	C179.174,44.312,175.496,40.638,170.974,40.638z"/>
<path fill="#009BDB" d="M135.217,39.68c-3.5,0-6.346,2.849-6.346,6.351c0,3.5,2.846,6.346,6.346,6.346
	c3.5,0,6.347-2.846,6.347-6.346C141.564,42.528,138.717,39.68,135.217,39.68z"/>
<path fill="#009BDB" d="M153.936,22.143c-4.516,0-8.19,3.676-8.19,8.195c0,4.522,3.674,8.2,8.19,8.2c4.523,0,8.202-3.678,8.202-8.2
	C162.138,25.819,158.459,22.143,153.936,22.143z"/>
<path fill="#009BDB" d="M140.653,17.111c0-4.519-3.676-8.194-8.195-8.194c-4.521,0-8.194,3.675-8.194,8.194
	c0,4.521,3.674,8.199,8.194,8.199C136.977,25.31,140.653,21.632,140.653,17.111z"/>
<path fill="#009BDB" d="M45.283,40.638c-4.519,0-8.194,3.674-8.194,8.19c0,4.521,3.675,8.2,8.194,8.2c4.519,0,8.194-3.68,8.194-8.2
	C53.477,44.312,49.801,40.638,45.283,40.638z"/>
<path fill="#009BDB" d="M81.041,39.68c-3.5,0-6.347,2.849-6.347,6.351c0,3.5,2.847,6.346,6.347,6.346
	c3.504,0,6.356-2.846,6.356-6.346C87.396,42.528,84.545,39.68,81.041,39.68z"/>
<path fill="#009BDB" d="M108.15,30.164c-3.501,0-6.351,2.846-6.351,6.347c0,3.501,2.849,6.348,6.351,6.348
	c3.5,0,6.344-2.847,6.344-6.348C114.494,33.009,111.649,30.164,108.15,30.164z"/>
<path fill="#009BDB" d="M62.322,22.143c-4.523,0-8.203,3.676-8.203,8.195c0,4.522,3.68,8.2,8.203,8.2c4.518,0,8.193-3.678,8.193-8.2
	C70.515,25.819,66.84,22.143,62.322,22.143z"/>
<path fill="#009BDB" d="M83.807,8.917c-4.521,0-8.198,3.675-8.198,8.194c0,4.521,3.678,8.199,8.198,8.199
	c4.516,0,8.19-3.678,8.19-8.199C91.997,12.592,88.323,8.917,83.807,8.917z"/>
<path fill="#009BDB" d="M108.15,4.993c-4.521,0-8.199,3.676-8.199,8.195c0,4.521,3.678,8.201,8.199,8.201
	c4.52,0,8.196-3.679,8.196-8.201C116.346,8.668,112.67,4.993,108.15,4.993z"/>
</svg>
